<svg width="27" height="14" viewBox="0 0 27 14" fill="none" xmlns="http://www.w3.org/2000/svg">
<path d="M8.23373 7.33305L10.7164 0.352966H9.07532L7.93917 3.38206L8.19165 0.352966H6.46638L3.98367 7.33305H5.5827L6.80301 3.95276L6.59262 7.24525L8.23373 7.33305ZM10.1694 7.33305L12.6521 0.352966H11.0952L8.57037 7.33305H10.1694ZM14.6719 6.89405L14.5878 3.38206L16.9442 0.528566L14.6719 6.89405ZM26.1176 4.43566L18.1225 6.58675L18.3329 5.92825H16.6497L17.1967 4.26006H18.6274L19.0482 2.98696L17.6175 3.07476L18.1225 1.66996H19.5111L19.974 0.396866H15.4715L13.8303 2.41626L14.6299 0.352966H13.0308L10.5481 7.33305H12.1892L13.2412 4.34786V7.33305H15.3452L7.81293 9.39634C7.02743 9.63046 6.32608 9.73292 5.70894 9.70364C5.09176 9.67436 4.61487 9.49876 4.27823 9.17684C3.52079 8.59153 3.25426 7.69887 3.47871 6.49895C3.61896 5.70875 3.92753 4.94784 4.40447 4.21616C3.28232 5.44535 2.45474 6.48433 1.92176 7.33305C1.33264 8.24033 0.953924 9.13294 0.785605 10.0109C0.617285 10.8889 0.715458 11.606 1.08016 12.162C2.06201 13.8595 4.20808 13.9766 7.51837 12.5132L26.1176 4.43566Z" fill="#1A2530"/>
</svg>
